<svg xmlns="http://www.w3.org/2000/svg">
    <symbol id="logo" viewBox="0 0 116 35">
        <path d="M74.9999 29L84.4999 32L92.4999 24L102.5 31L113 29L108.5 14.5L92.4999 19.5L83.4999 14.5L73.9999 16L74.9999 29Z" fill="#F1A501"/>
        <path d="M0.919922 24.064V21.902L7.03792 20.798V23.788C7.06859 25.4133 7.48259 26.64 8.27992 27.468C9.10792 28.2653 10.1966 28.664 11.5459 28.664C12.8646 28.664 13.9073 28.2347 14.6739 27.376C15.4713 26.5173 15.8699 25.3673 15.8699 23.926V1.38598H22.2179V23.926C22.2179 26.9313 21.2213 29.4767 19.2279 31.562C17.2346 33.6473 14.6893 34.69 11.5919 34.69C8.37192 34.69 5.78059 33.724 3.81792 31.792C1.88592 29.8293 0.919922 27.2533 0.919922 24.064Z" fill="black"/>
        <path d="M23.6766 27.836C23.6766 25.904 24.3053 24.3553 25.5626 23.19C26.82 22.0247 28.4453 21.2887 30.4386 20.982L36.0046 20.154C37.1393 20.0007 37.7066 19.464 37.7066 18.544C37.7066 17.6853 37.3693 16.98 36.6946 16.428C36.0506 15.876 35.1153 15.6 33.8886 15.6C32.6006 15.6 31.5733 15.9527 30.8066 16.658C30.0706 17.3633 29.6566 18.2373 29.5646 19.28L24.1366 18.13C24.3513 16.1673 25.3173 14.4347 27.0346 12.932C28.752 11.4293 31.0213 10.678 33.8426 10.678C37.216 10.678 39.7 11.4907 41.2946 13.116C42.8893 14.7107 43.6866 16.7653 43.6866 19.28V30.412C43.6866 31.7613 43.7786 32.9573 43.9626 34H38.3506C38.1973 33.3253 38.1206 32.4207 38.1206 31.286C36.6793 33.5247 34.456 34.644 31.4506 34.644C29.12 34.644 27.234 33.9693 25.7926 32.62C24.382 31.2707 23.6766 29.676 23.6766 27.836ZM32.7386 30.09C34.18 30.09 35.3606 29.6913 36.2806 28.894C37.2313 28.066 37.7066 26.7167 37.7066 24.846V23.834L32.6006 24.616C30.73 24.892 29.7946 25.8427 29.7946 27.468C29.7946 28.204 30.0553 28.8327 30.5766 29.354C31.098 29.8447 31.8186 30.09 32.7386 30.09Z" fill="black"/>
        <path d="M67.6577 0.695984V29.906C67.6577 31.4087 67.719 32.7733 67.8417 34H61.9997C61.8463 33.2333 61.7697 32.3593 61.7697 31.378C61.2483 32.3287 60.4203 33.0953 59.2857 33.678C58.1817 34.2607 56.8937 34.552 55.4217 34.552C52.2017 34.552 49.549 33.4327 47.4637 31.194C45.409 28.9247 44.3817 26.0727 44.3817 22.638C44.3817 19.2953 45.3937 16.4893 47.4177 14.22C49.4723 11.9507 52.079 10.816 55.2377 10.816C58.4883 10.816 60.6197 11.7513 61.6317 13.622V0.695984H67.6577ZM50.5457 22.638C50.5457 24.6313 51.067 26.2107 52.1097 27.376C53.1523 28.5107 54.5017 29.078 56.1577 29.078C57.783 29.078 59.117 28.4953 60.1597 27.33C61.2023 26.1647 61.7237 24.5853 61.7237 22.592C61.7237 20.6293 61.2023 19.096 60.1597 17.992C59.117 16.8573 57.783 16.29 56.1577 16.29C54.5323 16.29 53.183 16.8573 52.1097 17.992C51.067 19.1267 50.5457 20.6753 50.5457 22.638Z" fill="black"/>
        <path d="M76.6866 27.422C77.8213 28.5567 79.1859 29.124 80.7806 29.124C82.3753 29.124 83.7246 28.5567 84.8286 27.422C85.9633 26.2873 86.5306 24.708 86.5306 22.684C86.5306 20.66 85.9633 19.0807 84.8286 17.946C83.7246 16.8113 82.3753 16.244 80.7806 16.244C79.1859 16.244 77.8213 16.8113 76.6866 17.946C75.5826 19.0807 75.0306 20.66 75.0306 22.684C75.0306 24.708 75.5826 26.2873 76.6866 27.422ZM72.2706 14.082C74.5399 11.8127 77.3766 10.678 80.7806 10.678C84.1846 10.678 87.0059 11.8127 89.2446 14.082C91.5139 16.3513 92.6486 19.2187 92.6486 22.684C92.6486 26.1493 91.5139 29.0167 89.2446 31.286C87.0059 33.5553 84.1846 34.69 80.7806 34.69C77.3766 34.69 74.5399 33.5553 72.2706 31.286C70.0319 29.0167 68.9126 26.1493 68.9126 22.684C68.9126 19.2187 70.0319 16.3513 72.2706 14.082Z" fill="black"/>
        <path d="M99.8699 27.422C101.005 28.5567 102.369 29.124 103.964 29.124C105.559 29.124 106.908 28.5567 108.012 27.422C109.147 26.2873 109.714 24.708 109.714 22.684C109.714 20.66 109.147 19.0807 108.012 17.946C106.908 16.8113 105.559 16.244 103.964 16.244C102.369 16.244 101.005 16.8113 99.8699 17.946C98.7659 19.0807 98.2139 20.66 98.2139 22.684C98.2139 24.708 98.7659 26.2873 99.8699 27.422ZM95.4539 14.082C97.7232 11.8127 100.56 10.678 103.964 10.678C107.368 10.678 110.189 11.8127 112.428 14.082C114.697 16.3513 115.832 19.2187 115.832 22.684C115.832 26.1493 114.697 29.0167 112.428 31.286C110.189 33.5553 107.368 34.69 103.964 34.69C100.56 34.69 97.7232 33.5553 95.4539 31.286C93.2152 29.0167 92.0959 26.1493 92.0959 22.684C92.0959 19.2187 93.2152 16.3513 95.4539 14.082Z" fill="black"/>
    </symbol>

    <symbol id="customization" viewBox="0 0 77 66">
        <path d="M27 48C27 57.9411 35.0589 66 45 66L72 66C74.7614 66 77 63.7614 77 61L77 27C77 21.4772 72.5228 17 67 17L32 17C29.2386 17 27 19.2386 27 22L27 48Z" fill="#FFF1DA"/>
        <path d="M50 27.8482V22.1518C50 21.0351 49.0947 20.1299 47.9781 20.1299H45.7994C44.9282 20.1299 44.1553 19.5717 43.8815 18.7448C43.5764 17.8235 43.2058 16.9322 42.7752 16.0763C42.3831 15.2967 42.5332 14.3542 43.1502 13.7371L44.6916 12.1957C45.4813 11.406 45.4813 10.1259 44.6916 9.33622L40.6637 5.30825C39.874 4.51861 38.5938 4.51861 37.8042 5.30825L36.2628 6.8497C35.6457 7.4668 34.7032 7.6168 33.9236 7.22465C33.0677 6.79406 32.1763 6.42344 31.2551 6.11841C30.4282 5.84457 29.87 5.07163 29.87 4.2005V2.02193C29.87 0.905231 28.9648 0 27.8481 0H22.1517C21.035 0 20.1298 0.905231 20.1298 2.02193V4.2006C20.1298 5.07173 19.5716 5.84467 18.7446 6.11851C17.8234 6.42354 16.9321 6.79417 16.0761 7.22475C15.2966 7.6169 14.3541 7.4668 13.737 6.8498L12.1956 5.30835C11.4059 4.51871 10.1257 4.51871 9.3361 5.30835L5.30833 9.33632C4.51869 10.126 4.51869 11.4061 5.30833 12.1958L6.84978 13.7372C7.46678 14.3543 7.61688 15.2968 7.22473 16.0764C6.79415 16.9323 6.42352 17.8236 6.11849 18.7449C5.92493 19.3293 5.48218 19.7794 4.93167 19.9932C4.7032 20.0819 4.55672 20.2305 4.30119 20.2305H2.12252C1.00582 20.2305 0.100586 21.1357 0.100586 22.2524V27.7476C0.100586 28.8643 1.00582 29.7695 2.12252 29.7695H4.30119C5.17232 29.7695 5.94525 30.4283 6.2191 31.2552C6.52413 32.1765 6.89475 33.0677 7.32533 33.9237C7.71749 34.7033 7.56739 35.6458 6.95038 36.2629L5.50954 37.8043C4.7199 38.594 4.7199 39.8741 5.50954 40.6638L9.3363 44.4905C10.1259 45.2802 11.4061 45.2802 12.1958 44.4905L13.7372 42.9491C14.3542 42.332 15.2968 42.182 16.0763 42.5741C16.9323 43.0047 18.0248 43.476 18.9461 43.781C19.773 44.0548 20.3312 44.8278 20.3312 45.6989V47.8776C20.3312 48.9943 21.2364 49.8995 22.3531 49.8995H27.7477C28.8644 49.8995 29.7696 48.9943 29.7696 47.8776V45.6989C29.7696 45.4434 29.9182 45.2969 30.0069 45.0684C30.2207 44.5179 30.6709 44.0751 31.2552 43.8816C32.1764 43.5766 33.0678 43.2059 33.9237 42.7754C34.7033 42.3832 35.6458 42.5333 36.2629 43.1503L37.8043 44.6917C38.5939 45.4814 39.8741 45.4814 40.6638 44.6917L44.6917 40.6638C45.4814 39.8741 45.4814 38.594 44.6917 37.8043L43.1503 36.2629C42.5333 35.6458 42.3832 34.7033 42.7753 33.9237C43.2059 33.0678 43.5765 32.1765 43.8816 31.2552C44.1554 30.4283 44.9284 29.8701 45.7995 29.8701H47.9781C49.0947 29.8701 50 28.9649 50 27.8482Z" fill="#B6C4CF"/>
        <path d="M30.007 45.0684C29.9185 45.2967 29.8702 45.5442 29.8702 45.7998V47.9778C29.8702 49.0945 28.9648 50 27.8481 50H22.1519C21.0352 50 20.1298 49.0945 20.1298 47.9778V45.7998C20.1298 44.9285 19.5714 44.1549 18.7445 43.8812C17.8239 43.5764 16.9326 43.2062 16.0765 42.7756C15.2968 42.3833 14.3541 42.5332 13.7374 43.1499L12.1962 44.6911C11.4064 45.4808 10.1258 45.4808 9.33602 44.6911L5.30785 40.6639C4.51911 39.8742 4.51911 38.5935 5.30785 37.8038L6.8501 36.2625C7.4668 35.6458 7.6167 34.7032 7.22435 33.9235C6.79376 33.0674 6.42354 32.176 6.11871 31.2555C5.84507 30.4285 5.07143 29.8702 4.2002 29.8702H2.02213C0.905433 29.8702 0 28.9648 0 27.8481V22.1519C0 21.0352 0.905433 20.1297 2.02213 20.1297H4.2002C4.45573 20.1297 4.70322 20.0815 4.93159 19.9929C4.92958 20.1187 4.92857 20.2454 4.92857 20.3722C4.92857 34.013 15.9869 45.0714 29.6278 45.0714C29.7545 45.0714 29.8813 45.0704 30.007 45.0684Z" fill="#9FACBA"/>
        <path d="M25 41.5996C34.1677 41.5996 41.5996 34.1677 41.5996 25C41.5996 15.8323 34.1677 8.40039 25 8.40039C15.8323 8.40039 8.40039 15.8323 8.40039 25C8.40039 34.1677 15.8323 41.5996 25 41.5996Z" fill="#9FACBA"/>
        <path d="M25 38.0784C32.223 38.0784 38.0784 32.223 38.0784 25C38.0784 17.7769 32.223 11.9215 25 11.9215C17.7769 11.9215 11.9215 17.7769 11.9215 25C11.9215 32.223 17.7769 38.0784 25 38.0784Z" fill="#F8F7F7"/>
    </symbol>
    <symbol id="best-flights" viewBox="0 0 168 154">
        <path d="M47.8052 72.9999C47.8052 82.9411 55.864 90.9999 65.8052 90.9999L92.8052 90.9999C95.5666 90.9999 97.8052 88.7614 97.8052 85.9999L97.8052 51.9999C97.8052 46.4771 93.328 41.9999 87.8052 41.9999L52.8052 41.9999C50.0437 41.9999 47.8052 44.2385 47.8052 46.9999L47.8052 72.9999Z" fill="#FFF1DA"/>
        <path d="M96.3891 86.9413C95.0307 87.2456 93.7077 87.8091 92.5022 88.5965C89.3614 90.5978 87.5341 93.4546 88.421 94.9767C89.308 96.4988 92.5731 96.1095 95.7138 94.1082C96.9356 93.3486 98.021 92.3779 98.9032 91.2559C99.3125 90.7138 99.386 90.0383 99.0908 89.5334L97.9386 87.556C97.6454 87.0495 97.0374 86.8086 96.3891 86.9413Z" fill="#D5D6DB"/>
        <path d="M88.5021 59.9482C87.5171 60.169 86.5577 60.5778 85.6834 61.1488C83.4066 62.5996 82.0808 64.671 82.7234 65.7738C83.366 66.8766 85.7345 66.5941 88.0111 65.1434C88.897 64.5923 89.6839 63.8881 90.3237 63.0744C90.6202 62.6815 90.6733 62.1922 90.4593 61.8261L89.6251 60.3943C89.4128 60.0271 88.9722 59.8521 88.5021 59.9482Z" fill="#D5D6DB"/>
        <path d="M75.688 61.0787C75.4687 61.0542 75.2349 61.1126 75.0322 61.2421L69.684 64.6503C69.2366 64.9346 69.0576 65.4819 69.2845 65.8731C69.3364 65.9627 69.4075 66.0393 69.4937 66.0983L82.6753 75.1832L100.509 63.8185L75.688 61.0787Z" fill="#029BC5"/>
        <path d="M132.065 59.794L83.5329 90.3461L54.8201 101.772L40.177 104.682L38.566 101.945L119.461 51.9985C121.872 50.5036 124.558 49.586 127.246 49.3389C128.424 49.237 129.587 49.2762 130.708 49.455C131.702 49.6057 132.645 49.8964 133.508 50.3185C134.472 50.7967 136.307 50.8519 136.901 51.8047C136.903 51.8032 138.305 56.1776 132.065 59.794Z" fill="#E1E6E9"/>
        <path d="M84.1762 86.3036L63.1809 119.774C62.9187 120.244 63.0744 120.77 63.5283 120.949C63.8068 121.059 64.1477 121.016 64.4341 120.834L69.7781 117.444C70.806 116.791 71.7161 115.963 72.4523 115.009L113.169 67.1404L84.1762 86.3036Z" fill="#029BC5"/>
        <path d="M31.1966 85.1861C30.8464 85.0664 30.4296 85.1285 30.0778 85.3525L25.6603 88.1659C25.0584 88.549 24.8185 89.2854 25.1244 89.8111C25.1827 89.911 25.2584 89.999 25.3491 90.0714L37.7259 99.9838L50.7389 91.8557L31.1966 85.1861Z" fill="#029BC5"/>
        <path d="M41.8743 101.771L35.2128 111.1C35.1152 111.234 35.1381 111.403 35.2641 111.476C35.3549 111.529 35.4789 111.519 35.5797 111.452L39.708 108.836C39.74 108.815 39.7691 108.79 39.7931 108.761L49.5266 96.9261L41.8743 101.771Z" fill="#029BC5"/>
        <path d="M129.911 49.8572C128.757 49.6718 127.559 49.6322 126.346 49.7388C125.165 51.3899 124.411 53.2446 124.157 55.118C124.139 55.4943 124.442 55.7652 124.835 55.723C124.957 55.7098 125.079 55.6669 125.188 55.5981L132.796 50.7538C131.906 50.3152 130.935 50.0134 129.911 49.8572Z" fill="#029BC5"/>
        <path d="M113.332 58.7653L118.299 55.6284L122.926 63.4974L117.959 66.6343L113.332 58.7653Z" fill="#D5D6DB"/>
        <path d="M110.207 61.8775C109.608 62.2567 109.369 62.9855 109.673 63.5052L110.165 64.3472C110.489 64.8536 111.228 64.9427 111.816 64.546C112.376 64.1682 112.602 63.4815 112.332 62.9745L111.84 62.1325C111.536 61.6132 110.805 61.499 110.207 61.8775Z" fill="#3A556A"/>
        <path d="M105.742 64.65C105.144 65.0291 104.904 65.7579 105.208 66.2777L105.701 67.1196C106.025 67.6261 106.764 67.7152 107.352 67.3185C107.912 66.9407 108.137 66.254 107.868 65.747L107.375 64.905C107.071 64.3859 106.341 64.2716 105.742 64.65Z" fill="#3A556A"/>
        <path d="M101.276 67.4233C100.679 67.803 100.44 68.5309 100.744 69.0501L101.236 69.8921C101.56 70.3986 102.299 70.4876 102.887 70.0909C103.447 69.7131 103.673 69.0265 103.403 68.5195L102.911 67.6775C102.607 67.1578 101.875 67.044 101.276 67.4233Z" fill="#3A556A"/>
        <path d="M96.8121 70.1957C96.2142 70.5754 95.9758 71.3033 96.2794 71.8226L96.7717 72.6646C97.0956 73.171 97.8348 73.2601 98.4231 72.8634C98.9829 72.4856 99.2084 71.7989 98.9386 71.2919L98.4463 70.4499C98.1422 69.9304 97.4106 69.8166 96.8121 70.1957Z" fill="#3A556A"/>
        <path d="M92.3481 72.9684C91.7499 73.3482 91.5113 74.0764 91.8151 74.5959L92.3077 75.4383C92.6114 75.9575 93.3427 76.0712 93.941 75.6923C94.5394 75.3133 94.7783 74.5851 94.4746 74.0658L93.982 73.2235C93.6791 72.7037 92.9481 72.5892 92.3494 72.9676C92.3489 72.9679 92.3486 72.9681 92.3481 72.9684Z" fill="#3A556A"/>
        <path d="M87.8837 75.7408C87.2855 76.1207 87.047 76.8489 87.3508 77.3684L87.8434 78.2107C88.147 78.73 88.8783 78.8437 89.4767 78.4647C90.075 78.0857 90.3139 77.3575 90.0103 76.8383L89.5177 75.9959C89.2148 75.4762 88.4838 75.3617 87.885 75.74C87.8845 75.7404 87.884 75.7407 87.8837 75.7408Z" fill="#3A556A"/>
        <path d="M83.4191 78.5134C82.8209 78.8932 82.5824 79.6214 82.8862 80.1409L83.3788 80.9832C83.6832 81.502 84.4148 81.6145 85.0125 81.2351C85.6092 80.8562 85.8476 80.1296 85.5454 79.6109L85.0528 78.7686C84.7492 78.249 84.018 78.1347 83.4191 78.5134Z" fill="#3A556A"/>
        <path d="M78.9545 81.2859C78.3563 81.6657 78.1178 82.3939 78.4216 82.9134L78.9142 83.7558C79.2186 84.2746 79.9502 84.3871 80.5479 84.0076C81.1446 83.6288 81.383 82.9021 81.0808 82.3835L80.5882 81.5411C80.2846 81.0215 79.5534 80.9072 78.9545 81.2859Z" fill="#3A556A"/>
        <path d="M74.4903 84.0583C73.8921 84.4381 73.6535 85.1663 73.9573 85.6858L74.4499 86.5281C74.7543 87.0469 75.486 87.1595 76.0837 86.78C76.6804 86.4011 76.9188 85.6745 76.6165 85.1559L76.1239 84.3136C75.8201 83.7941 75.0889 83.6798 74.4903 84.0583Z" fill="#3A556A"/>
        <path d="M70.0245 86.8315C69.4261 87.2105 69.1872 87.9387 69.4909 88.458L69.4915 88.4591L69.9841 89.3014C70.2885 89.8202 71.0201 89.9328 71.6179 89.5533C72.2146 89.1744 72.453 88.4478 72.1507 87.9291L71.6581 87.0868C71.3546 86.5671 70.6233 86.4528 70.0245 86.8315Z" fill="#3A556A"/>
        <path d="M65.5612 89.6032C64.9629 89.9822 64.724 90.7104 65.0276 91.2296L65.0283 91.2307L65.5209 92.073C65.8253 92.5918 66.5569 92.7044 67.1546 92.3249C67.7514 91.9461 67.9898 91.2194 67.6875 90.7008L67.1949 89.8585C66.8911 89.339 66.1599 89.2247 65.5612 89.6032Z" fill="#3A556A"/>
    </symbol>
    <symbol id="calculated-weather" viewBox="0 0 92 78">
        <path d="M92 60C92 69.9411 83.9411 78 74 78L47 78C44.2386 78 42 75.7614 42 73L42 39C42 33.4772 46.4772 29 52 29L87 29C89.7614 29 92 31.2386 92 34L92 60Z" fill="#FFF1DA"/>
        <path d="M23.527 50.6574L21.6389 49.7535L10.4222 66.3382H22.9402L24.1464 65.5516V51.225L23.527 50.6574Z" fill="#407093"/>
        <path d="M21.8095 49.8353L17.5644 47.803H16.7644L4.76062 65.5516L5.47525 66.3382H10.6483L21.8095 49.8353Z" fill="#365E7D"/>
        <path d="M26.4 65.5515H9.84754C9.09559 65.5515 8.48596 66.161 8.48596 66.9131V68.6385C8.48596 69.3903 9.09545 69.9998 9.84727 69.9999H26.4C27.152 69.9999 27.7616 69.3904 27.7616 68.6385V66.9131C27.7616 66.161 27.152 65.5515 26.4 65.5515Z" fill="#4A80AA"/>
        <path d="M8.76775 68.6385V66.9131C8.76775 66.1611 9.37738 65.5515 10.1293 65.5515H1.36158C0.609627 65.5515 0 66.161 0 66.9131V68.6385C0 69.3904 0.609627 69.9999 1.36158 69.9999H10.1292C9.37724 69.9999 8.76775 69.3904 8.76775 68.6385Z" fill="#407093"/>
        <path d="M21.2397 39.9827C20.7302 41.0338 20.4423 42.2123 20.4423 43.459C20.4423 46.8659 22.5756 49.7721 25.5782 50.9218C26.8673 50.5179 28.0128 49.7893 28.9176 48.8301V47.0893L21.2397 39.9827Z" fill="#4A80AA"/>
        <path d="M20.5767 43.4863C20.5767 42.2684 20.8583 41.1173 21.357 40.0909L18.9027 37.8192H17.9069C16.4009 39.2399 15.4595 41.2525 15.4595 43.4862C15.4595 47.7893 18.9477 51.2775 23.2508 51.2775C24.1471 51.2775 25.0067 51.1237 25.8078 50.8449C22.7628 49.7856 20.5767 46.8921 20.5767 43.4863Z" fill="#407093"/>
        <path d="M65.812 0.924695C64.5791 -0.308232 62.5801 -0.308232 61.3473 0.924695L58.3345 3.93756V4.31941L62.0949 8.23954L62.7991 8.40223L65.8119 5.38937C67.0449 4.15658 67.0449 2.15762 65.812 0.924695Z" fill="#FFD086"/>
        <path d="M66.6449 2.41492C66.5134 1.86915 66.238 1.35085 65.812 0.924695C64.5791 -0.308232 62.5801 -0.308232 61.3473 0.924695L58.3345 3.93756V4.31941L60.3282 6.3978C61.5169 5.16091 62.697 3.94029 63.3039 3.3334C64.3156 2.32182 65.7933 2.31403 66.6449 2.41492Z" fill="#FFC365"/>
        <path d="M55.4975 8.95026C55.4629 8.95026 55.4279 8.94848 55.3927 8.94507L20.5763 5.51808C19.9957 5.46094 19.5714 4.944 19.6286 4.36336C19.6857 3.78272 20.2029 3.35875 20.7833 3.41549L55.5997 6.84234C56.1802 6.89949 56.6046 7.41642 56.5475 7.99706C56.4937 8.5427 56.0342 8.95026 55.4975 8.95026Z" fill="#365E7D"/>
        <path d="M30.6459 15.4681C30.1774 15.4681 29.7493 15.1539 29.6249 14.6795C29.4769 14.1151 29.8144 13.5377 30.3787 13.3896L55.2287 6.87154C55.793 6.72374 56.3706 7.06103 56.5185 7.6254C56.6666 8.18964 56.3292 8.76714 55.7648 8.9152L30.9147 15.4333C30.8248 15.4568 30.7345 15.4681 30.6459 15.4681Z" fill="#407093"/>
        <path d="M62.2465 47.136C61.7093 47.136 61.2498 46.7281 61.1964 46.1823L57.7907 11.3445C57.734 10.764 58.1586 10.2472 58.7393 10.1903C59.3199 10.1362 59.8366 10.5584 59.8933 11.139L63.299 45.9768C63.3557 46.5573 62.9311 47.0741 62.3504 47.131C62.3156 47.1342 62.2808 47.136 62.2465 47.136Z" fill="#365E7D"/>
        <path d="M52.2252 37.2475C52.1357 37.2475 52.0446 37.2359 51.9538 37.212C51.3899 37.0624 51.054 36.4841 51.2035 35.9201L57.8176 10.9741C57.967 10.41 58.5452 10.0746 59.1093 10.2236C59.6732 10.3732 60.0092 10.9515 59.8596 11.5155L53.2456 36.4615C53.1202 36.9348 52.6927 37.2475 52.2252 37.2475Z" fill="#407093"/>
        <path d="M55.3069 6.96429L58.3274 3.94376L62.7914 8.40782L59.7709 11.4284L55.3069 6.96429Z" fill="#FFC365"/>
        <path d="M57.6009 9.24573C58.3269 8.48557 59.4605 7.29995 60.557 6.15999L58.3347 3.9375L55.3136 6.95843L57.6009 9.24573Z" fill="#FFA90F"/>
        <path d="M60.4509 13.1519C60.1806 13.1519 59.9102 13.0487 59.704 12.8425L53.8944 7.03305C53.4818 6.62044 53.4818 5.95175 53.8944 5.53899C54.3069 5.12665 54.9757 5.12665 55.3883 5.53899L61.1979 11.3484C61.6105 11.761 61.6105 12.4297 61.1979 12.8425C60.9916 13.0488 60.7213 13.1519 60.4509 13.1519Z" fill="#4A80AA"/>
        <path d="M61.1327 49.0376L25.7619 13.36C21.0724 23.9466 20.2581 35.3114 23.7688 45.1115C33.4643 53.8573 47.9476 55.2003 61.2809 49.7026L61.1327 49.0376Z" fill="#B5DCFF"/>
        <path d="M25.9502 13.55L17.8463 5.37573L17.0341 5.45585C11.3245 19.3031 12.9917 34.3917 22.6683 44.0684C23.2544 44.6545 23.8609 45.2107 24.4853 45.7383C20.4062 35.9498 21.0691 24.3077 25.9502 13.55Z" fill="#8BCAFF"/>
        <path d="M64.365 46.5017L28.4914 10.6282C28.1384 10.6826 27.7985 10.8431 27.5267 11.1149L25.9664 12.6754C25.6313 13.0105 25.4646 13.4481 25.4598 13.8874L61.2196 49.647C61.7513 50.1787 62.6133 50.1787 63.145 49.647L64.3651 48.4271C64.8967 47.8955 64.8967 47.0334 64.365 46.5017Z" fill="#DBEDFF"/>
        <path d="M26.0203 12.7021L27.5481 11.1743C27.8295 10.8929 28.1848 10.7318 28.5515 10.6882L20.2352 2.37192C19.7035 1.84022 18.8415 1.84022 18.3096 2.37192L17.0896 3.59199C16.5579 4.12369 16.5579 4.9857 17.0896 5.5174L25.5228 13.9506C25.5117 13.5 25.6764 13.0459 26.0203 12.7021Z" fill="#B5DCFF"/>
    </symbol>
    <symbol id="cursor" viewBox="0 0 18 18">
        <path d="M17.0683 1.76033L10.1933 16.7603C10.1357 16.886 10.0382 16.989 9.91588 17.0533C9.79356 17.1177 9.65339 17.1396 9.51726 17.1158C9.38114 17.092 9.25675 17.0237 9.16355 16.9217C9.07034 16.8197 9.01358 16.6896 9.00214 16.5519L8.42089 9.57896L1.44795 8.99771C1.31024 8.98627 1.18019 8.92951 1.07816 8.8363C0.976134 8.7431 0.907871 8.61871 0.884051 8.48258C0.86023 8.34646 0.882196 8.20628 0.946512 8.08397C1.01083 7.96166 1.11387 7.86411 1.23952 7.80658L16.2395 0.93158C16.3555 0.878438 16.4849 0.862048 16.6105 0.884614C16.736 0.907179 16.8516 0.967618 16.9418 1.05781C17.032 1.14801 17.0925 1.26365 17.115 1.38919C17.1376 1.51474 17.1212 1.64418 17.0681 1.76014L17.0683 1.76033Z" fill="#080809"/>
    </symbol>
    <symbol id="square" viewbox="0 0 22 22">
        <path d="M0.544607 4.47549C0.248039 4.47549 0.00539207 4.23284 0 3.93627V0.544608C0 0.242647 0.242647 0 0.544607 0H3.93627C4.23284 0 4.47549 0.242647 4.47549 0.544608V1.72549H17.5245V0.544608C17.5245 0.248039 17.7672 0.00539216 18.0637 0H21.4554C21.752 0 21.9946 0.242647 22 0.544608V3.93627C22 4.23284 21.7574 4.47549 21.4554 4.47549H20.2745V17.5245H21.4554C21.752 17.5245 21.9946 17.7672 22 18.0637V21.4554C22 21.752 21.7574 21.9946 21.4554 22H18.0637C17.7672 22 17.5245 21.7574 17.5245 21.4554V20.2745H4.47549V21.4554C4.47549 21.752 4.23284 21.9946 3.93627 22H0.544607C0.248039 22 0.00539207 21.7574 0 21.4554V18.0637C0 17.7672 0.242647 17.5245 0.544607 17.5245H1.72549V4.47549H0.544607ZM20.9216 3.39706V1.07843H18.6029V3.39706H20.9216ZM18.6029 20.9216H20.9216V18.6029H18.6029V20.9216ZM4.47549 18.0637V19.1961H17.5245V18.0637C17.5245 17.7672 17.7672 17.5245 18.0637 17.5245H19.1961V4.47549H18.0637C17.7672 4.47549 17.5245 4.23284 17.5245 3.93627V2.80392H4.47549V3.93627C4.47549 4.23284 4.23284 4.47549 3.93627 4.47549H2.80392V17.5245H3.93627C4.23284 17.5245 4.47549 17.7672 4.47549 18.0637ZM1.07843 18.6029V20.9216H3.39706V18.6029H1.07843ZM3.39706 3.39706V1.07843H1.07843V3.39706H3.39706Z" fill="white"/>
    </symbol>
    <symbol id="water-sport" viewBox="0 0 24 18"> 
        <path d="M20.8184 17.9287C20.3682 17.9379 19.926 17.8091 19.5512 17.5596C19.2723 17.3773 18.9462 17.2803 18.613 17.2803C18.2797 17.2803 17.9537 17.3773 17.6747 17.5596C17.2961 17.8007 16.8566 17.9287 16.4077 17.9287C15.9589 17.9287 15.5194 17.8007 15.1408 17.5596C14.8618 17.3772 14.5357 17.28 14.2023 17.28C13.869 17.28 13.5429 17.3772 13.2639 17.5596C12.8853 17.8007 12.4458 17.9287 11.9969 17.9287C11.5481 17.9287 11.1086 17.8007 10.7299 17.5596C10.4512 17.3773 10.1253 17.2801 9.79216 17.2801C9.45904 17.2801 9.13315 17.3773 8.85438 17.5596C8.5111 17.7878 8.1105 17.9145 7.69848 17.9255L7.67578 17.2768C7.98012 17.2696 8.27566 17.1733 8.52584 16.9998C8.90435 16.7589 9.34376 16.6308 9.79248 16.6308C10.2412 16.6308 10.6806 16.7589 11.0591 16.9998C11.3381 17.1822 11.6641 17.2793 11.9974 17.2793C12.3307 17.2793 12.6567 17.1822 12.9357 16.9998C13.3143 16.7586 13.754 16.6305 14.203 16.6305C14.6519 16.6305 15.0916 16.7586 15.4703 16.9998C15.7492 17.1822 16.0753 17.2793 16.4085 17.2793C16.7418 17.2793 17.0679 17.1822 17.3468 16.9998C17.7255 16.7589 18.165 16.6309 18.6138 16.6309C19.0626 16.6309 19.5021 16.7589 19.8808 16.9998C20.1604 17.1826 20.4872 17.28 20.8213 17.28C21.1554 17.28 21.4822 17.1826 21.7618 16.9998C22.1362 16.7511 22.5776 16.6225 23.027 16.6314V17.2801C22.6924 17.2709 22.3636 17.3687 22.0884 17.5593C21.7127 17.8092 21.2695 17.9381 20.8184 17.9287Z" fill="white"/>
        <path d="M3.17837 17.9287C2.7283 17.938 2.28619 17.8092 1.91156 17.5596C1.63643 17.3689 1.30761 17.2709 0.972961 17.2801V16.6314C1.42313 16.6221 1.86536 16.7509 2.2401 17.0005C2.51507 17.1913 2.84381 17.2892 3.17837 17.2801C3.51307 17.2893 3.84195 17.1912 4.11696 17.0002C4.4909 16.7507 4.9324 16.622 5.38182 16.6314C5.82036 16.6216 6.25164 16.7444 6.61912 16.9839L6.29188 17.5437C6.02345 17.3631 5.70525 17.2709 5.38182 17.2801C5.0485 17.2711 4.72102 17.3688 4.44712 17.559C4.07206 17.8093 3.62917 17.9383 3.17837 17.9287Z" fill="white"/>
        <path d="M20.8193 15.6581C20.3689 15.6673 19.9264 15.5386 19.5512 15.2891C19.272 15.1066 18.9457 15.0094 18.6122 15.0094C18.2786 15.0094 17.9523 15.1066 17.6731 15.2891C17.2945 15.53 16.855 15.658 16.4063 15.658C15.9575 15.658 15.518 15.53 15.1395 15.2891C14.8606 15.1067 14.5347 15.0096 14.2015 15.0096C13.8683 15.0096 13.5424 15.1067 13.2636 15.2891C12.885 15.5301 12.4455 15.6582 11.9967 15.6582C11.548 15.6582 11.1085 15.5301 10.7299 15.2891C10.4511 15.1067 10.1252 15.0096 9.79199 15.0096C9.45882 15.0096 9.13288 15.1067 8.85404 15.2891C8.47942 15.5387 8.0373 15.6675 7.58723 15.6581C7.13716 15.6675 6.69504 15.5387 6.32042 15.2891C6.04555 15.0983 5.71693 15.0004 5.38248 15.0095C5.04813 15.0004 4.71963 15.0984 4.44485 15.2891C4.07083 15.5384 3.62941 15.6672 3.17999 15.6581C2.72982 15.6675 2.28759 15.5387 1.91285 15.2891C1.63743 15.0979 1.30807 15 0.972961 15.0095V14.3608C1.42302 14.3515 1.86513 14.4804 2.23977 14.7299C2.5149 14.9207 2.84372 15.0186 3.17837 15.0095C3.51271 15.0186 3.84121 14.9206 4.11599 14.7299C4.49002 14.4806 4.93143 14.3518 5.38085 14.3608C5.83125 14.3513 6.27375 14.4801 6.64864 14.7299C6.92361 14.9207 7.25235 15.0187 7.58691 15.0095C7.92147 15.0187 8.2502 14.9207 8.52518 14.7299C8.90372 14.4888 9.34319 14.3608 9.79199 14.3608C10.2408 14.3608 10.6803 14.4888 11.0588 14.7299C11.3377 14.9123 11.6637 15.0094 11.9969 15.0094C12.3301 15.0094 12.6561 14.9123 12.935 14.7299C13.3136 14.4888 13.753 14.3608 14.2018 14.3608C14.6506 14.3608 15.0901 14.4888 15.4686 14.7299C15.7475 14.9123 16.0735 15.0094 16.4067 15.0094C16.74 15.0094 17.066 14.9123 17.3449 14.7299C17.7238 14.4889 18.1636 14.3609 18.6126 14.3609C19.0617 14.3609 19.5015 14.4889 19.8804 14.7299C20.1598 14.9123 20.4862 15.0093 20.8198 15.0093C21.1534 15.0093 21.4798 14.9123 21.7592 14.7299C22.1343 14.4805 22.5767 14.3517 23.027 14.3608V15.0095C22.6917 15 22.3622 15.098 22.0865 15.2891C21.7116 15.5384 21.2695 15.6671 20.8193 15.6581Z" fill="white"/>
        <path d="M20.8184 13.3881C20.3682 13.3973 19.926 13.2685 19.5512 13.0191C19.2761 12.8283 18.9473 12.7304 18.6126 12.7395C18.367 12.731 18.1232 12.7834 17.9027 12.8919L17.6166 12.3081C17.9263 12.1564 18.2679 12.0815 18.6126 12.0899C19.0633 12.0807 19.506 12.2098 19.8811 12.4599C20.1607 12.6427 20.4875 12.7401 20.8216 12.7401C21.1557 12.7401 21.4825 12.6427 21.7622 12.4599C22.1364 12.211 22.5777 12.0822 23.027 12.0908V12.7395C22.6924 12.7303 22.3636 12.8281 22.0884 13.0187C21.7127 13.2686 21.2695 13.3975 20.8184 13.3881Z" fill="white"/>
        <path d="M16.4043 13.3881C15.9549 13.3975 15.5134 13.2688 15.1394 13.0194C14.8605 12.8369 14.5344 12.7397 14.201 12.7397C13.8677 12.7397 13.5416 12.8369 13.2626 13.0194C12.884 13.2604 12.4444 13.3884 11.9956 13.3884C11.5468 13.3884 11.1073 13.2604 10.7286 13.0194C10.4497 12.837 10.1236 12.7399 9.79037 12.7399C9.4571 12.7399 9.13105 12.837 8.8521 13.0194C8.47753 13.2685 8.03572 13.3972 7.58593 13.3881C7.13587 13.3974 6.69376 13.2686 6.31912 13.019C6.044 12.8283 5.71518 12.7304 5.38053 12.7395C5.0472 12.7305 4.71972 12.8282 4.44583 13.0184C4.07112 13.2684 3.62873 13.3975 3.17837 13.3881C2.7283 13.3974 2.28619 13.2686 1.91156 13.019C1.63643 12.8283 1.30761 12.7304 0.972961 12.7395V12.0908C1.42313 12.0815 1.86536 12.2103 2.2401 12.4599C2.51507 12.6507 2.84381 12.7486 3.17837 12.7395C3.51308 12.7487 3.84196 12.6506 4.11696 12.4596C4.4909 12.2101 4.9324 12.0814 5.38183 12.0908C5.83189 12.0815 6.27399 12.2103 6.64864 12.4599C6.92361 12.6507 7.25235 12.7486 7.58691 12.7395C7.92156 12.7486 8.25038 12.6506 8.5255 12.4599C8.90412 12.2189 9.34364 12.0908 9.79248 12.0908C10.2413 12.0908 10.6808 12.2189 11.0594 12.4599C11.3384 12.6423 11.6644 12.7394 11.9977 12.7394C12.331 12.7394 12.657 12.6423 12.936 12.4599C13.3147 12.2187 13.7543 12.0905 14.2033 12.0905C14.6523 12.0905 15.0919 12.2187 15.4706 12.4599C15.7563 12.6521 16.0952 12.7498 16.4393 12.7391C16.4644 12.7395 16.4894 12.7382 16.5143 12.7352L16.6005 13.3781C16.5354 13.3857 16.4699 13.389 16.4043 13.3881Z" fill="white"/>
        <path d="M20.8193 11.1175C20.3689 11.1267 19.9264 10.9979 19.5512 10.7484C19.272 10.566 18.9457 10.4688 18.6122 10.4688C18.2786 10.4688 17.9523 10.566 17.6731 10.7484C17.2945 10.9894 16.855 11.1174 16.4063 11.1174C15.9575 11.1174 15.518 10.9894 15.1395 10.7484C14.8606 10.5661 14.5347 10.469 14.2015 10.469C13.8683 10.469 13.5424 10.5661 13.2636 10.7484C12.885 10.9895 12.4455 11.1175 11.9967 11.1175C11.548 11.1175 11.1085 10.9895 10.7299 10.7484C10.4511 10.5661 10.1252 10.469 9.79199 10.469C9.45882 10.469 9.13288 10.5661 8.85404 10.7484C8.47942 10.998 8.0373 11.1268 7.58723 11.1175C7.13716 11.1268 6.69504 10.998 6.32042 10.7484C6.04555 10.5577 5.71693 10.4597 5.38248 10.4688C5.04813 10.4598 4.71963 10.5577 4.44485 10.7484C4.07083 10.9977 3.62941 11.1265 3.17999 11.1175C2.72982 11.1268 2.28759 10.998 1.91285 10.7484C1.63743 10.5573 1.30807 10.4593 0.972961 10.4688V9.8202C1.42302 9.8109 1.86513 9.9397 2.23977 10.1893C2.5149 10.38 2.84372 10.478 3.17837 10.4688C3.51271 10.4779 3.84121 10.38 4.11599 10.1893C4.49002 9.93995 4.93143 9.81115 5.38085 9.8202C5.83125 9.81063 6.27375 9.93945 6.64864 10.1893C6.92361 10.3801 7.25235 10.478 7.58691 10.4688C7.92147 10.478 8.2502 10.3801 8.52518 10.1893C8.90372 9.94819 9.34319 9.82012 9.79199 9.82012C10.2408 9.82012 10.6803 9.94819 11.0588 10.1893C11.3377 10.3717 11.6637 10.4688 11.9969 10.4688C12.3301 10.4688 12.6561 10.3717 12.935 10.1893C13.3136 9.94819 13.753 9.82012 14.2018 9.82012C14.6506 9.82012 15.0901 9.94819 15.4686 10.1893C15.7475 10.3717 16.0735 10.4688 16.4067 10.4688C16.74 10.4688 17.066 10.3717 17.3449 10.1893C17.7238 9.94828 18.1636 9.82028 18.6126 9.82028C19.0617 9.82028 19.5015 9.94828 19.8804 10.1893C20.1598 10.3716 20.4862 10.4687 20.8198 10.4687C21.1534 10.4687 21.4798 10.3716 21.7592 10.1893C22.1343 9.93985 22.5767 9.81107 23.027 9.8202V10.4688C22.6917 10.4594 22.3622 10.5573 22.0865 10.7484C21.7116 10.9977 21.2695 11.1265 20.8193 11.1175Z" fill="white"/>
        <path d="M16.1977 10.8425L15.5857 10.6278C15.7434 10.1749 15.8077 9.69484 15.775 9.21646C15.7423 8.73808 15.6132 8.27125 15.3954 7.84408L13.1676 3.48159C13.1456 3.43851 13.1335 3.39106 13.1322 3.3427C13.1309 3.29435 13.1405 3.24632 13.1602 3.20213C13.1798 3.15795 13.2092 3.11873 13.246 3.08734C13.2828 3.05595 13.3261 3.03319 13.3729 3.02073L17.8125 1.83695C17.9572 1.79911 18.0811 1.70567 18.1572 1.57696C18.2334 1.44825 18.2556 1.29468 18.2191 1.14967C18.1826 1.00465 18.0903 0.879915 17.9623 0.802603C17.8343 0.725291 17.6809 0.701655 17.5356 0.736838L12.1622 2.02116C12.0473 2.04831 11.9402 2.10153 11.8492 2.17671C11.7582 2.25189 11.6858 2.34701 11.6374 2.45469C11.5891 2.56238 11.5662 2.67975 11.5705 2.7977C11.5749 2.91566 11.6063 3.03103 11.6624 3.13489L13.2581 6.09921C13.2985 6.17456 13.3076 6.26283 13.2833 6.34483C13.259 6.42684 13.2033 6.49592 13.1283 6.53705L11.0689 7.67219L10.7559 7.10397L12.5338 6.12386L11.0919 3.44235C10.9887 3.25092 10.931 3.03834 10.9231 2.82103C10.9153 2.60372 10.9575 2.38752 11.0465 2.18913C11.1355 1.99074 11.269 1.81549 11.4366 1.67693C11.6042 1.53836 11.8014 1.4402 12.013 1.39003L17.3838 0.106027C17.6965 0.0270211 18.0277 0.0754585 18.3047 0.240683C18.5816 0.405908 18.7816 0.674385 18.8606 0.987054C18.9396 1.29972 18.8912 1.63097 18.7259 1.90793C18.5607 2.18488 18.2922 2.38486 17.9796 2.46386L13.9275 3.54386L15.9733 7.54862C16.2309 8.05414 16.3836 8.60654 16.4222 9.1726C16.4607 9.73866 16.3844 10.3067 16.1977 10.8425Z" fill="white"/>
        <path d="M9.62226 7.7339L5.681 9.90564L5.99389 10.4735L9.93515 8.30172L9.62226 7.7339Z" fill="white"/>
        <path d="M19.1351 8.68505C18.654 8.68505 18.1838 8.54239 17.7837 8.27511C17.3837 8.00784 17.072 7.62794 16.8879 7.18347C16.7038 6.739 16.6556 6.24992 16.7494 5.77808C16.8433 5.30623 17.075 4.87282 17.4151 4.53263C17.7553 4.19245 18.1887 3.96079 18.6606 3.86693C19.1324 3.77307 19.6215 3.82124 20.066 4.00535C20.5104 4.18945 20.8903 4.50122 21.1576 4.90124C21.4249 5.30125 21.5676 5.77153 21.5676 6.25262C21.5669 6.89753 21.3104 7.51583 20.8544 7.97185C20.3983 8.42787 19.78 8.68437 19.1351 8.68505ZM19.1351 4.46884C18.7823 4.46884 18.4375 4.57346 18.1441 4.76946C17.8508 4.96547 17.6221 5.24405 17.4871 5.57C17.3521 5.89594 17.3168 6.2546 17.3856 6.60062C17.4544 6.94664 17.6243 7.26448 17.8738 7.51395C18.1233 7.76341 18.4411 7.9333 18.7871 8.00213C19.1331 8.07096 19.4918 8.03563 19.8178 7.90062C20.1437 7.76561 20.4223 7.53698 20.6183 7.24364C20.8143 6.9503 20.9189 6.60542 20.9189 6.25262C20.9183 5.77972 20.7302 5.32635 20.3958 4.99196C20.0614 4.65757 19.608 4.46944 19.1351 4.46884Z" fill="white"/>
    </symbol>
    <symbol id="car" viewBox="0 0 24 20">
        <path d="M4.5 11.125C4.20333 11.125 3.91332 11.213 3.66665 11.3778C3.41997 11.5426 3.22771 11.7769 3.11418 12.051C3.00065 12.3251 2.97094 12.6267 3.02882 12.9176C3.0867 13.2086 3.22956 13.4759 3.43934 13.6857C3.64912 13.8954 3.91639 14.0383 4.20737 14.0962C4.49834 14.1541 4.79994 14.1244 5.07403 14.0108C5.34812 13.8973 5.58238 13.705 5.74721 13.4584C5.91203 13.2117 6 12.9217 6 12.625C6 12.2272 5.84197 11.8456 5.56066 11.5643C5.27936 11.283 4.89783 11.125 4.5 11.125ZM4.5 13.375C4.35167 13.375 4.20666 13.331 4.08332 13.2486C3.95999 13.1662 3.86386 13.0491 3.80709 12.912C3.75033 12.775 3.73547 12.6242 3.76441 12.4787C3.79335 12.3332 3.86478 12.1996 3.96967 12.0947C4.07456 11.9898 4.2082 11.9184 4.35368 11.8894C4.49917 11.8605 4.64997 11.8753 4.78701 11.9321C4.92406 11.9889 5.04119 12.085 5.1236 12.2083C5.20601 12.3317 5.25 12.4767 5.25 12.625C5.25 12.8239 5.17098 13.0147 5.03033 13.1553C4.88968 13.296 4.69891 13.375 4.5 13.375Z" fill="white"/>
        <path d="M19.5 11.125C19.2033 11.125 18.9133 11.213 18.6666 11.3778C18.42 11.5426 18.2277 11.7769 18.1142 12.051C18.0006 12.3251 17.9709 12.6267 18.0288 12.9176C18.0867 13.2086 18.2296 13.4759 18.4393 13.6857C18.6491 13.8954 18.9164 14.0383 19.2074 14.0962C19.4983 14.1541 19.7999 14.1244 20.074 14.0108C20.3481 13.8973 20.5824 13.705 20.7472 13.4584C20.912 13.2117 21 12.9217 21 12.625C21 12.2272 20.842 11.8456 20.5607 11.5643C20.2793 11.283 19.8978 11.125 19.5 11.125ZM19.5 13.375C19.3517 13.375 19.2067 13.331 19.0833 13.2486C18.96 13.1662 18.8639 13.0491 18.8071 12.912C18.7503 12.775 18.7355 12.6242 18.7644 12.4787C18.7933 12.3332 18.8648 12.1996 18.9697 12.0947C19.0746 11.9898 19.2082 11.9184 19.3537 11.8894C19.4992 11.8605 19.65 11.8753 19.787 11.9321C19.9241 11.9889 20.0412 12.085 20.1236 12.2083C20.206 12.3317 20.25 12.4767 20.25 12.625C20.25 12.8239 20.171 13.0147 20.0303 13.1553C19.8897 13.296 19.6989 13.375 19.5 13.375Z" fill="white"/>
        <path d="M8.625 13H15.375V13.75H8.625V13Z" fill="white"/>
        <path d="M8.625 11.5H15.375V12.25H8.625V11.5Z" fill="white"/>
        <path d="M10.875 5.875H13.125V6.625H10.875V5.875Z" fill="white"/>
        <path d="M23.25 9.25V8.5C23.2491 8.20191 23.1303 7.91627 22.9195 7.70549C22.7087 7.4947 22.4231 7.37589 22.125 7.375H20.64L19.8638 4.6525L19.6312 3.72625C19.5702 3.48304 19.4297 3.26719 19.232 3.11296C19.0343 2.95874 18.7907 2.87499 18.54 2.875H15.375V1.375C15.3744 1.17627 15.2952 0.985849 15.1547 0.845326C15.0142 0.704802 14.8237 0.625594 14.625 0.625H9.375C9.17627 0.625594 8.98585 0.704802 8.84533 0.845326C8.7048 0.985849 8.62559 1.17627 8.625 1.375V2.875H5.46C5.20926 2.87499 4.96569 2.95874 4.76799 3.11296C4.57028 3.26719 4.42976 3.48304 4.36875 3.72625L4.14 4.64875L3.36 7.375H1.875C1.57691 7.37589 1.29127 7.4947 1.08049 7.70549C0.869703 7.91627 0.75089 8.20191 0.75 8.5V9.25C0.750607 9.43997 0.79944 9.62668 0.891922 9.79262C0.984403 9.95856 1.1175 10.0983 1.27875 10.1987C0.93975 10.5471 0.750047 11.0139 0.75 11.5V16C0.750517 16.1573 0.784179 16.3128 0.848792 16.4562C0.913405 16.5996 1.00752 16.7279 1.125 16.8325V18.25C1.12589 18.5481 1.2447 18.8337 1.45549 19.0445C1.66627 19.2553 1.95191 19.3741 2.25 19.375H5.25C5.54809 19.3741 5.83373 19.2553 6.04451 19.0445C6.2553 18.8337 6.37411 18.5481 6.375 18.25V17.125H17.625V18.25C17.6259 18.5481 17.7447 18.8337 17.9555 19.0445C18.1663 19.2553 18.4519 19.3741 18.75 19.375H21.75C22.0481 19.3741 22.3337 19.2553 22.5445 19.0445C22.7553 18.8337 22.8741 18.5481 22.875 18.25V16.8325C22.9925 16.7279 23.0866 16.5996 23.1512 16.4562C23.2158 16.3128 23.2495 16.1573 23.25 16V11.5C23.25 11.0139 23.0602 10.5471 22.7213 10.1987C22.8825 10.0983 23.0156 9.95856 23.1081 9.79262C23.2006 9.62668 23.2494 9.43997 23.25 9.25ZM9.375 1.375H14.625V2.875H9.375V1.375ZM5.09625 3.91C5.11635 3.8287 5.16309 3.75647 5.22901 3.70481C5.29493 3.65316 5.37625 3.62506 5.46 3.625H18.54C18.6237 3.62506 18.7051 3.65316 18.771 3.70481C18.8369 3.75647 18.8836 3.8287 18.9037 3.91L19.02 4.375H4.98L5.09625 3.91ZM4.78125 5.125H19.2188L20.5012 9.625H9.71625C9.62811 9.10094 9.35712 8.62507 8.95138 8.28187C8.54565 7.93867 8.03142 7.75036 7.5 7.75036C6.96858 7.75036 6.45435 7.93867 6.04862 8.28187C5.64288 8.62507 5.37189 9.10094 5.28375 9.625H3.49875L4.78125 5.125ZM8.9475 9.625H6.0525C6.13438 9.30322 6.32114 9.0179 6.58327 8.81412C6.84541 8.61033 7.16797 8.49969 7.5 8.49969C7.83203 8.49969 8.15459 8.61033 8.41673 8.81412C8.67886 9.0179 8.86562 9.30322 8.9475 9.625ZM1.5 8.5C1.5 8.40054 1.53951 8.30516 1.60984 8.23483C1.68016 8.16451 1.77554 8.125 1.875 8.125H3.14625L2.71875 9.625H1.875C1.77554 9.625 1.68016 9.58549 1.60984 9.51517C1.53951 9.44484 1.5 9.34946 1.5 9.25V8.5ZM5.625 18.25C5.625 18.3495 5.58549 18.4448 5.51516 18.5152C5.44484 18.5855 5.34946 18.625 5.25 18.625H2.25C2.15054 18.625 2.05516 18.5855 1.98484 18.5152C1.91451 18.4448 1.875 18.3495 1.875 18.25V17.125H5.625V18.25ZM22.125 18.25C22.125 18.3495 22.0855 18.4448 22.0152 18.5152C21.9448 18.5855 21.8495 18.625 21.75 18.625H18.75C18.6505 18.625 18.5552 18.5855 18.4848 18.5152C18.4145 18.4448 18.375 18.3495 18.375 18.25V17.125H22.125V18.25ZM22.5 16C22.5 16.0995 22.4605 16.1948 22.3902 16.2652C22.3198 16.3355 22.2245 16.375 22.125 16.375H1.875C1.77554 16.375 1.68016 16.3355 1.60984 16.2652C1.53951 16.1948 1.5 16.0995 1.5 16V15.625H22.5V16ZM22.5 14.875H1.5V11.5C1.50089 11.2019 1.6197 10.9163 1.83049 10.7055C2.04127 10.4947 2.32691 10.3759 2.625 10.375H21.375C21.6731 10.3759 21.9587 10.4947 22.1695 10.7055C22.3803 10.9163 22.4991 11.2019 22.5 11.5V14.875ZM22.5 9.25C22.5 9.34946 22.4605 9.44484 22.3902 9.51517C22.3198 9.58549 22.2245 9.625 22.125 9.625H21.2812L20.8538 8.125H22.125C22.2245 8.125 22.3198 8.16451 22.3902 8.23483C22.4605 8.30516 22.5 8.40054 22.5 8.5V9.25Z" fill="white"/>
    </symbol>
    <symbol viewBox="0 0 14 14" id="leaf">        
        <path d="M13.6544 0.150827C13.2855 0.0428744 4.26244 -0.855475 1.09361 3.42567C-0.309832 5.32223 -0.330914 7.9221 1.02328 11.1525C0.679764 11.8655 0.379038 12.6166 0.133956 13.4091C0.0594447 13.6499 0.194222 13.9052 0.434764 13.9795C0.479608 13.9934 0.525026 14 0.56987 14C0.764338 14 0.944888 13.8744 1.00515 13.6787C3.42037 5.87028 11.2693 2.09267 13.6762 1.13835C13.9105 1.0454 14.2235 0.317405 13.6544 0.150827Z" fill="#84829A"/>
        <path d="M2.47192 12.1296C3.77832 12.6777 5.08453 12.9586 6.29922 12.9586C7.39103 12.9586 8.40923 12.7341 9.28663 12.2789C11.0525 11.3629 12.1315 9.61069 12.4071 7.2112C12.6878 4.76578 13.0373 3.23404 13.3289 2.297C10.7336 3.49416 5.16878 6.59728 2.47192 12.1296Z" fill="#84829A"/>            
    </symbol>        
    <symbol viewBox="0 0 14 14" id="map">
        <path d="M13.5009 3.56123e-08C13.4232 -2.92608e-05 13.3466 0.0180173 13.2771 0.0527336L9.48821 1.94771L5.20378 0.0432416C5.19678 0.0402533 5.18878 0.039726 5.18128 0.0367378C5.16201 0.0295308 5.14229 0.0235251 5.12228 0.0187497C5.10239 0.0133885 5.08217 0.00919911 5.06178 0.00624017C5.02118 0.00290038 4.98037 0.00290038 4.93979 0.00624017C4.9194 0.00919911 4.89919 0.0133885 4.8793 0.0187497C4.85929 0.0235251 4.83957 0.0295308 4.82029 0.0367378C4.81279 0.039726 4.80479 0.040224 4.79779 0.0432416L0.297862 2.04322C0.11722 2.12343 0.000825201 2.30255 0.000854498 2.50019V13.5C0.000942387 13.6692 0.0865172 13.8268 0.228341 13.919C0.370195 14.0114 0.549108 14.0257 0.703822 13.957L5.00076 12.047L9.29769 13.957C9.30519 13.96 9.31319 13.957 9.32069 13.9615C9.44174 14.0157 9.5807 14.0126 9.69917 13.953C9.70717 13.9496 9.71616 13.953 9.72416 13.9475L13.7241 11.9476C13.8936 11.8629 14.0007 11.6896 14.0006 11.5V0.500237C14.0008 0.224088 13.777 0.000117221 13.5009 3.56123e-08ZM4.50079 11.1751L1.00083 12.7305V2.8252L4.50079 1.26971V11.1751ZM9.00072 12.7305L5.50076 11.1751V1.26971L9.00072 2.82517V12.7305ZM13.0006 11.1911L10.0007 12.691V2.80918L13.0006 1.3092V11.1911Z" fill="#84829A"/>
    </symbol>
    <symbol id="send" viewBox="0 0 14 14">
        <path d="M12.3433 1.24251L6.02577 7.58335C5.95335 7.54139 5.87719 7.50624 5.79827 7.47835L1.62744 6.06668C1.5013 6.03507 1.38935 5.96222 1.30935 5.8597C1.22936 5.75719 1.18591 5.63088 1.18591 5.50085C1.18591 5.37081 1.22936 5.24451 1.30935 5.14199C1.38935 5.03947 1.5013 4.96662 1.62744 4.93501L11.9758 1.25418C12.0434 1.23121 12.1143 1.21939 12.1858 1.21918C12.2392 1.21832 12.2924 1.2262 12.3433 1.24251Z" fill="#84829A"/>
        <path d="M12.7459 2.02412L9.06503 12.3841C9.02444 12.5049 8.94545 12.609 8.84012 12.6806C8.73478 12.7522 8.6089 12.7874 8.4817 12.7808C8.35303 12.7867 8.22602 12.7498 8.1205 12.6759C8.01498 12.6021 7.93687 12.4954 7.89836 12.3725L6.51003 8.20162C6.48214 8.1227 6.44699 8.04654 6.40503 7.97412L12.7575 1.65662C12.7934 1.77717 12.7893 1.90608 12.7459 2.02412Z" fill="#84829A"/>
    </symbol>
    <symbol viewBox="0 0 16 16" id="city">
        <path d="M0.266665 15.4667H1.86667V6.66667C1.86667 6.5194 1.98607 6.4 2.13333 6.4H5.86667V0.266667C5.86667 0.1194 5.98607 0 6.13333 0H13.0667C13.2139 0 13.3333 0.1194 13.3333 0.266667V15.4667H15.7333C15.8806 15.4667 16 15.5861 16 15.7333C16 15.8806 15.8806 16 15.7333 16H0.266665C0.119399 16 0 15.8806 0 15.7333C0 15.5861 0.119399 15.4667 0.266665 15.4667ZM10.4 15.4667H11.4667V13.0667C11.4667 12.9194 11.3473 12.8 11.2 12.8H10.6667C10.5194 12.8 10.4 12.9194 10.4 13.0667V15.4667ZM9.33333 6.66667V15.4667H9.86667V13.0667C9.86667 12.6248 10.2248 12.2667 10.6667 12.2667H11.2C11.6418 12.2667 12 12.6248 12 13.0667V15.4667H12.8V0.533333H6.4V6.4H9.06667C9.21393 6.4 9.33333 6.5194 9.33333 6.66667ZM2.4 15.4667H8.8V6.93333H2.4V15.4667Z" fill="#84829A"/>
        <path d="M7.46658 3.7334H9.06659C9.21385 3.7334 9.33325 3.8528 9.33325 4.00007V5.60007C9.33325 5.74733 9.21385 5.86673 9.06659 5.86673H7.46658C7.31932 5.86673 7.19992 5.74733 7.19992 5.60007V4.00007C7.19992 3.8528 7.31932 3.7334 7.46658 3.7334ZM7.73325 5.3334H8.79992V4.26673H7.73325V5.3334Z" fill="#84829A"/>
        <path d="M7.46658 1.06665H9.06659C9.21385 1.06665 9.33325 1.18605 9.33325 1.33332V2.93332C9.33325 3.08058 9.21385 3.19998 9.06659 3.19998H7.46658C7.31932 3.19998 7.19992 3.08058 7.19992 2.93332V1.33332C7.19992 1.18605 7.31932 1.06665 7.46658 1.06665ZM7.73325 2.66665H8.79992V1.59998H7.73325V2.66665Z" fill="#84829A"/>
        <path d="M10.1333 3.7334H11.7333C11.8806 3.7334 12 3.8528 12 4.00007V5.60007C12 5.74733 11.8806 5.86673 11.7333 5.86673H10.1333C9.98607 5.86673 9.86667 5.74733 9.86667 5.60007V4.00007C9.86667 3.8528 9.98607 3.7334 10.1333 3.7334ZM10.4 5.3334H11.4667V4.26673H10.4V5.3334Z" fill="#84829A"/>
        <path d="M10.1333 1.06665H11.7333C11.8806 1.06665 12 1.18605 12 1.33332V2.93332C12 3.08058 11.8806 3.19998 11.7333 3.19998H10.1333C9.98607 3.19998 9.86667 3.08058 9.86667 2.93332V1.33332C9.86667 1.18605 9.98607 1.06665 10.1333 1.06665ZM10.4 2.66665H11.4667V1.59998H10.4V2.66665Z" fill="#84829A"/>
        <path d="M10.1333 6.3999H11.7333C11.8806 6.3999 12 6.5193 12 6.66657V8.26657C12 8.41384 11.8806 8.53324 11.7333 8.53324H10.1333C9.98607 8.53324 9.86667 8.41384 9.86667 8.26657V6.66657C9.86667 6.5193 9.98607 6.3999 10.1333 6.3999ZM10.4 7.9999H11.4667V6.93324H10.4V7.9999Z" fill="#84829A"/>
        <path d="M10.1333 9.06665H11.7333C11.8806 9.06665 12 9.18605 12 9.33332V10.9333C12 11.0806 11.8806 11.2 11.7333 11.2H10.1333C9.98607 11.2 9.86667 11.0806 9.86667 10.9333V9.33332C9.86667 9.18605 9.98607 9.06665 10.1333 9.06665ZM10.4 10.6667H11.4667V9.59998H10.4V10.6667Z" fill="#84829A"/>
        <path d="M5.06659 12.2666H3.46659C3.31932 12.2666 3.19992 12.1472 3.19992 12V10.4C3.19992 10.2527 3.31932 10.1333 3.46659 10.1333H5.06659C5.21385 10.1333 5.33325 10.2527 5.33325 10.4V12C5.33325 12.1472 5.21385 12.2666 5.06659 12.2666ZM4.79992 10.6666H3.73325V11.7333H4.79992V10.6666Z" fill="#84829A"/>
        <path d="M5.06659 9.59989H3.46659C3.31932 9.59989 3.19992 9.48049 3.19992 9.33322V7.73322C3.19992 7.58595 3.31932 7.46655 3.46659 7.46655H5.06659C5.21385 7.46655 5.33325 7.58595 5.33325 7.73322V9.33322C5.33325 9.48049 5.21385 9.59989 5.06659 9.59989ZM4.79992 7.99989H3.73325V9.06655H4.79992V7.99989Z" fill="#84829A"/>
        <path d="M5.06659 14.9334H3.46659C3.31932 14.9334 3.19992 14.814 3.19992 14.6667V13.0667C3.19992 12.9194 3.31932 12.8 3.46659 12.8H5.06659C5.21385 12.8 5.33325 12.9194 5.33325 13.0667V14.6667C5.33325 14.814 5.21385 14.9334 5.06659 14.9334ZM4.79992 13.3334H3.73325V14.4H4.79992V13.3334Z" fill="#84829A"/>
        <path d="M7.73333 12.2666H6.13333C5.98607 12.2666 5.86667 12.1472 5.86667 12V10.4C5.86667 10.2527 5.98607 10.1333 6.13333 10.1333H7.73333C7.8806 10.1333 8 10.2527 8 10.4V12C8 12.1472 7.8806 12.2666 7.73333 12.2666ZM7.46667 10.6666H6.4V11.7333H7.46667V10.6666Z" fill="#84829A"/>
        <path d="M7.73333 9.59989H6.13333C5.98607 9.59989 5.86667 9.48049 5.86667 9.33322V7.73322C5.86667 7.58595 5.98607 7.46655 6.13333 7.46655H7.73333C7.8806 7.46655 8 7.58595 8 7.73322V9.33322C8 9.48049 7.8806 9.59989 7.73333 9.59989ZM7.46667 7.99989H6.4V9.06655H7.46667V7.99989Z" fill="#84829A"/>
        <path d="M7.73333 14.9334H6.13333C5.98607 14.9334 5.86667 14.814 5.86667 14.6667V13.0667C5.86667 12.9194 5.98607 12.8 6.13333 12.8H7.73333C7.8806 12.8 8 12.9194 8 13.0667V14.6667C8 14.814 7.8806 14.9334 7.73333 14.9334ZM7.46667 13.3334H6.4V14.4H7.46667V13.3334Z" fill="#84829A"/>
    </symbol>
    <symbol id="like" viewBox="0 0 20 20">
        <path d="M18.3644 2.45457C17.33 1.34265 15.8804 0.709981 14.3617 0.707636C12.8417 0.709395 11.3906 1.34173 10.3546 2.45386L10.0015 2.82698L9.64836 2.45386C7.59251 0.241198 4.13215 0.114128 1.91953 2.16998C1.82148 2.26112 1.72679 2.35577 1.63565 2.45386C-0.545218 4.80619 -0.545218 8.44162 1.63565 10.794L9.48255 19.069C9.75403 19.3556 10.2064 19.3679 10.493 19.0964C10.5024 19.0875 10.5115 19.0784 10.5204 19.069L18.3645 10.794C20.5452 8.44187 20.5452 4.80665 18.3644 2.45457ZM17.3302 9.80969H17.3294L10.0015 17.5386L2.67282 9.80969C1.00676 8.01229 1.00676 5.23481 2.67282 3.43741C4.1858 1.79757 6.74172 1.69475 8.38156 3.20773C8.46118 3.28119 8.53778 3.35779 8.61124 3.43741L9.48255 4.35663C9.76969 4.64193 10.2333 4.64193 10.5204 4.35663L11.3917 3.43812C12.9047 1.79828 15.4606 1.69546 17.1005 3.20844C17.1801 3.2819 17.2567 3.35851 17.3302 3.43812C19.0107 5.23837 19.023 8.02092 17.3302 9.80969Z" fill="#4152CA"/>
    </symbol>
    <symbol id="icon-send" viewBox="0 0 46 44">
        <path d="M37.6105 12.9904C38.3018 14.1878 38.2092 15.6136 37.3677 16.711L18.8939 40.8182C18.1321 41.8123 16.8776 42.3191 15.5948 42.0729C14.3387 41.8313 13.3427 40.9156 12.997 39.6841L10.2635 29.9555L9.97886 28.9435L9.24487 28.191L2.18643 20.9595C1.29269 20.0444 0.9977 18.724 1.41656 17.5154C1.83111 16.3206 2.87082 15.4536 4.15272 15.2856L34.267 11.3404C35.6381 11.1604 36.9192 11.793 37.6105 12.9904Z" fill="white"/>
        <path d="M10.2636 29.9555L12.997 39.6841C13.3427 40.9157 14.3386 41.8313 15.5948 42.0729C16.8776 42.3192 18.1321 41.8124 18.8939 40.8182L37.3677 16.7111C38.2092 15.6137 38.3018 14.1879 37.6105 12.9905L9.97889 28.9436L10.2636 29.9555Z" fill="white"/>
        <path d="M21.2233 22.4515C21.5044 22.9385 21.338 23.5616 20.8504 23.8431L10.2637 29.9553L9.97899 28.9434L9.245 28.1909L19.8317 22.0787C20.3193 21.7973 20.9421 21.9646 21.2233 22.4515Z" fill="url(#paint0_linear_1_491)"/>
        <path d="M10.2636 29.9554L20.8503 23.8432C21.3379 23.5617 21.5044 22.9387 21.2232 22.4517L9.97892 28.9435L10.2636 29.9554Z" fill="url(#paint1_linear_1_491)"/>
    </symbol>
    <symbol id="insta" viewBox="0 0 16 16">
        <path d="M13.6562 0H2.34375C1.05156 0 0 1.05156 0 2.34375V13.6562C0 14.9487 1.05156 16 2.34375 16H13.6562C14.9487 16 16 14.9487 16 13.6562V2.34375C16 1.05156 14.9487 0 13.6562 0ZM15.0625 13.6562C15.0625 14.4316 14.4316 15.0625 13.6562 15.0625H2.34375C1.56844 15.0625 0.9375 14.4316 0.9375 13.6562V2.34375C0.9375 1.56844 1.56844 0.9375 2.34375 0.9375H13.6562C14.4316 0.9375 15.0625 1.56844 15.0625 2.34375V13.6562Z" fill="black"/>
        <path d="M13.1562 1.90625C12.6394 1.90625 12.2188 2.32687 12.2188 2.84375C12.2188 3.36063 12.6394 3.78125 13.1562 3.78125C13.6731 3.78125 14.0938 3.36063 14.0938 2.84375C14.0938 2.32687 13.6731 1.90625 13.1562 1.90625Z" fill="black"/>
        <path d="M8 3.78125C5.67375 3.78125 3.78125 5.67375 3.78125 8C3.78125 10.3263 5.67375 12.2188 8 12.2188C10.3263 12.2188 12.2188 10.3263 12.2188 8C12.2188 5.67375 10.3263 3.78125 8 3.78125ZM8 11.2812C6.19062 11.2812 4.71875 9.80937 4.71875 8C4.71875 6.19062 6.19062 4.71875 8 4.71875C9.80937 4.71875 11.2812 6.19062 11.2812 8C11.2812 9.80937 9.80937 11.2812 8 11.2812Z" fill="black"/>
    </symbol>
    <symbol id="facebook" viewBox="0 0 7 13">
        <path fill-rule="evenodd" clip-rule="evenodd" d="M6.10837 2.24446C5.78831 2.14321 5.42023 2.0757 5.08417 2.0757C4.66809 2.0757 3.77191 2.36259 3.77191 2.91948V4.25266H5.90033V6.49712H3.77191V12.6905H1.6275V6.49712H0.571289V4.25266H1.6275V3.12199C1.6275 1.41755 2.36364 0 4.13999 0C4.7481 0 5.83632 0.0337513 6.42843 0.253134L6.10837 2.24446Z" fill="#080809"/>
    </symbol>
    <symbol viewBox="0 0 16 13" id="twitter">
        <path d="M16 1.539C15.405 1.8 14.771 1.973 14.11 2.057C14.79 1.651 15.309 1.013 15.553 0.244C14.919 0.622 14.219 0.889 13.473 1.038C12.871 0.397 12.013 0 11.077 0C9.261 0 7.799 1.474 7.799 3.281C7.799 3.541 7.821 3.791 7.875 4.029C5.148 3.896 2.735 2.589 1.114 0.598C0.831 1.089 0.665 1.651 0.665 2.256C0.665 3.392 1.25 4.399 2.122 4.982C1.595 4.972 1.078 4.819 0.64 4.578C0.64 4.588 0.64 4.601 0.64 4.614C0.64 6.208 1.777 7.532 3.268 7.837C3.001 7.91 2.71 7.945 2.408 7.945C2.198 7.945 1.986 7.933 1.787 7.889C2.212 9.188 3.418 10.143 4.852 10.174C3.736 11.047 2.319 11.573 0.785 11.573C0.516 11.573 0.258 11.561 0 11.528C1.453 12.465 3.175 13 5.032 13C11.068 13 14.368 8 14.368 3.666C14.368 3.521 14.363 3.381 14.356 3.242C15.007 2.78 15.554 2.203 16 1.539Z" fill="#080809"/>
    </symbol>
    <symbol viewBox="0 0 20 20" id="playmarket">
        <g clip-path="url(#clip0_1_521)">
        <path d="M11.5073 10.0018L1.46381 19.673C0.993483 19.3516 0.714243 18.817 0.719181 18.2473V1.75626C0.714243 1.18663 0.993483 0.65199 1.46381 0.330566L11.5073 10.0018Z" fill="#2196F3"/>
        <path d="M15.0217 6.62364L11.5074 10.0018L1.46387 0.330532C1.50171 0.301203 1.54113 0.273918 1.58191 0.248803C2.11272 -0.0729183 2.77574 -0.0833047 3.31639 0.22156L15.0217 6.62364Z" fill="#4CAF50"/>
        <path d="M19.2807 10.0017C19.2873 10.6447 18.9379 11.2387 18.3727 11.5454L15.0218 13.3798L11.5074 10.0017L15.0218 6.62354L18.3727 8.45788C18.9379 8.76462 19.2873 9.3586 19.2807 10.0017Z" fill="#F0BB1F"/>
        <path d="M15.0217 13.3798L3.31639 19.7819C2.77455 20.0821 2.11404 20.0717 1.58191 19.7547C1.54113 19.7296 1.50171 19.7023 1.46387 19.6729L11.5074 10.0017L15.0217 13.3798Z" fill="#F15A2B"/>
        </g>
        <defs>
        <clipPath id="clip0_1_521">
        <rect width="20" height="20" fill="white"/>
        </clipPath>
        </defs>
    </symbol>
    <symbol viewBox="0 0 14 16" id="apple">
        <path d="M4.78926 15.9998C2.40798 15.9861 0.438232 11.1251 0.438232 8.64954C0.438232 4.60566 3.47183 3.72035 4.64095 3.72035C5.16783 3.72035 5.73042 3.92725 6.22664 4.11035C6.57364 4.23807 6.93251 4.36991 7.13211 4.36991C7.25158 4.36991 7.53311 4.25775 7.78167 4.15935C8.31176 3.94832 8.97139 3.68604 9.73951 3.68604C9.74089 3.68604 9.74273 3.68604 9.74408 3.68604C10.3176 3.68604 12.0567 3.81191 13.1022 5.38204L13.3471 5.75007L12.9947 6.01604C12.4911 6.39597 11.5724 7.08904 11.5724 8.46188C11.5724 10.0878 12.6129 10.7132 13.1128 11.0139C13.3334 11.1467 13.5618 11.2835 13.5618 11.5829C13.5618 11.7784 12.0018 15.9756 9.7363 15.9756C9.18195 15.9756 8.79011 15.809 8.44448 15.662C8.09476 15.5133 7.79308 15.3851 7.29458 15.3851C7.04189 15.3851 6.72236 15.5046 6.38408 15.6314C5.9218 15.8039 5.39855 15.9998 4.80483 15.9998H4.78926Z" fill="white"/>
        <path d="M9.97954 0C10.0385 2.12737 8.51713 3.60325 6.9975 3.51069C6.74709 1.81297 8.51694 0 9.97954 0Z" fill="white"/>
    </symbol>




</svg>
